<svg xmlns="http://www.w3.org/2000/svg" viewBox="0 0 512 512">
  <defs>
    <radialGradient id="bg" cx="50%" cy="40%" r="80%">
      <stop offset="0%" stop-color="#1a2c52"/>
      <stop offset="45%" stop-color="#0d1830"/>
      <stop offset="100%" stop-color="#05070e"/>
    </radialGradient>
    <linearGradient id="g" x1="0" y1="0" x2="0" y2="1">
      <stop offset="0%" stop-color="#ffe7ad"/>
      <stop offset="40%" stop-color="#f3c877"/>
      <stop offset="74%" stop-color="#d59a34"/>
      <stop offset="100%" stop-color="#a56d18"/>
    </linearGradient>
    <radialGradient id="core" cx="50%" cy="50%" r="50%">
      <stop offset="0%" stop-color="#fff6df"/>
      <stop offset="55%" stop-color="#ffdf9d"/>
      <stop offset="100%" stop-color="#e7b45a"/>
    </radialGradient>
    <radialGradient id="halo" cx="50%" cy="50%" r="50%">
      <stop offset="0%" stop-color="#ffd98a" stop-opacity="0.7"/>
      <stop offset="45%" stop-color="#f0b95f" stop-opacity="0.18"/>
      <stop offset="100%" stop-color="#f0b95f" stop-opacity="0"/>
    </radialGradient>
  </defs>
  <rect width="512" height="512" rx="112" fill="url(#bg)"/>
  <g transform="translate(256 244)">
    <circle r="170" fill="url(#halo)"/>
    <circle r="150" fill="none" stroke="url(#g)" stroke-width="1.6" opacity="0.5"/>
    <g fill="url(#g)">
      <path d="M0,-148 L15,-23 L0,0 L-15,-23 Z"/>
      <path d="M0,148 L15,23 L0,0 L-15,23 Z"/>
      <path d="M148,0 L23,15 L0,0 L23,-15 Z"/>
      <path d="M-148,0 L-23,15 L0,0 L-23,-15 Z"/>
      <g transform="rotate(45)" opacity="0.9">
        <path d="M0,-99 L10,-20 L0,0 L-10,-20 Z"/>
        <path d="M0,99 L10,20 L0,0 L-10,20 Z"/>
        <path d="M99,0 L20,10 L0,0 L20,-10 Z"/>
        <path d="M-99,0 L-20,10 L0,0 L-20,-10 Z"/>
      </g>
    </g>
    <g transform="translate(0 90)" opacity="0.95">
      <path d="M-76,22 C-49,5 -17,3 0,13 C17,3 49,5 76,22 L76,29 C49,12 17,10 0,20 C-17,10 -49,12 -76,29 Z" fill="url(#g)"/>
    </g>
    <circle r="27" fill="url(#core)"/>
    <circle r="7.5" fill="#fffaf0"/>
  </g>
</svg>
